Coordinates
version=1
nRows=7
nColumns=40
inDegrees=yes

Units are S.I. units (second, meters, Newtons, ...)
If the header above contains a line with 'inDegrees', this indicates whether rotational values are in degrees (yes) or radians (no).

endheader
time	pelvis_tilt	pelvis_list	pelvis_rotation	pelvis_tx	pelvis_ty	pelvis_tz	hip_flexion_r	hip_adduction_r	hip_rotation_r	knee_angle_r	knee_angle_r_beta	ankle_angle_r	subtalar_angle_r	mtp_angle_r	hip_flexion_l	hip_adduction_l	hip_rotation_l	knee_angle_l	knee_angle_l_beta	ankle_angle_l	subtalar_angle_l	mtp_angle_l	lumbar_extension	lumbar_bending	lumbar_rotation	arm_flex_r	arm_add_r	arm_rot_r	elbow_flex_r	pro_sup_r	wrist_flex_r	wrist_dev_r	arm_flex_l	arm_add_l	arm_rot_l	elbow_flex_l	pro_sup_l	wrist_flex_l	wrist_dev_l
      1.32500000	     -8.05630466	     -2.72093685	     -3.57793416	      0.15410603	      0.43571641	     -1.19878406	     99.92985937	    -45.74036428	     24.23799823	    119.20339474	      2.08049172	     34.76413722	     18.81347407	      0.00000000	    108.54997950	    -49.12333001	     35.20140447	    120.92992259	      2.11062531	     35.25280934	     27.14964504	      0.00000000	    -28.94782650	      3.67886843	      2.54500027	     44.99499390	    -15.00013020	     44.99499390	     75.00017600	     45.00000026	      0.00000000	      0.00000000	     44.99499390	    -15.00013020	     44.99499390	     75.00017600	     45.00000026	      0.00000000	      0.00000000
      1.33000000	     -7.85490059	     -2.71794851	     -3.58307817	      0.15423779	      0.43451586	     -1.19878965	    100.01712752	    -45.78871271	     24.51264403	    119.39243579	      2.08379111	     34.85056821	     18.95613052	      0.00000000	    108.54019594	    -49.11178954	     35.45083294	    121.10513272	      2.11368331	     35.37938586	     27.23545189	      0.00000000	    -29.19588509	      3.66134715	      2.55964766	     44.99515869	    -15.00012372	     44.99515869	     75.00017599	     45.00000026	      0.00000000	      0.00000000	     44.99515869	    -15.00012372	     44.99515869	     75.00017599	     45.00000026	      0.00000000	      0.00000000
      1.33500000	     -7.60478834	     -2.59509479	     -3.60004118	      0.15430372	      0.43353843	     -1.19865538	    100.17800011	    -45.78107007	     24.96384177	    119.57120687	      2.08691125	     34.91050833	     19.08300925	      0.00000000	    108.28256807	    -49.16913533	     35.46433199	    121.25626491	      2.11632106	     35.55064593	     27.38228882	      0.00000000	    -29.50297579	      3.48440355	      2.53103990	     44.99536585	    -15.00011559	     44.99536585	     75.00017597	     45.00000026	      0.00000000	      0.00000000	     44.99536585	    -15.00011559	     44.99536585	     75.00017597	     45.00000026	      0.00000000	      0.00000000
      1.34000000	     -7.48204979	     -2.67033739	     -3.64240677	      0.15439788	      0.43218127	     -1.19867602	    100.23399767	    -45.78125643	     25.08808225	    119.74763572	      2.08999051	     35.02694555	     19.21433270	      0.00000000	    108.51432976	    -49.14269784	     35.88673947	    121.44854215	      2.11967693	     35.62270067	     27.35491911	      0.00000000	    -29.66163308	      3.55698787	      2.60382441	     44.99551054	    -15.00011013	     44.99551054	     75.00017597	     45.00000026	      0.00000000	      0.00000000	     44.99551054	    -15.00011013	     44.99551054	     75.00017597	     45.00000026	      0.00000000	      0.00000000
      1.34500000	     -7.25653512	     -2.58046156	     -3.63957041	      0.15450490	      0.43114420	     -1.19863200	    100.39532506	    -45.82176175	     25.49389668	    119.91613255	      2.09293134	     35.07440477	     19.38125081	      0.00000000	    108.33415384	    -49.15752657	     35.96351782	    121.61161002	      2.12252300	     35.75566299	     27.51300658	      0.00000000	    -29.92682208	      3.43260215	      2.55336313	     44.99570609	    -15.00010275	     44.99570609	     75.00017595	     45.00000026	      0.00000000	      0.00000000	     44.99570609	    -15.00010275	     44.99570609	     75.00017595	     45.00000026	      0.00000000	      0.00000000
      1.35000000	     -7.12408917	     -2.58090987	     -3.67522264	      0.15458874	      0.42991293	     -1.19856310	    100.52212387	    -45.80229171	     25.73856045	    120.09563342	      2.09606422	     35.17775693	     19.49188973	      0.00000000	    108.42621119	    -49.16087008	     36.22339408	    121.77567902	      2.12538655	     35.83930829	     27.50341436	      0.00000000	    -30.09075829	      3.41705841	      2.60384691	     44.99582405	    -15.00009852	     44.99582405	     75.00017595	     45.00000026	      0.00000000	      0.00000000	     44.99582405	    -15.00009852	     44.99582405	     75.00017595	     45.00000026	      0.00000000	      0.00000000
      1.35500000	     -6.94821607	     -2.64285869	     -3.69642901	      0.15470273	      0.42883899	     -1.19861131	    100.50096077	    -45.83149199	     25.85178259	    120.25277220	      2.09880681	     35.26779764	     19.54293170	      0.00000000	    108.52853368	    -49.14804335	     36.57007895	    121.93727630	      2.12820695	     35.94552105	     27.55235120	      0.00000000	    -30.30979645	      3.47120906	      2.61518341	     44.99596019	    -15.00009364	     44.99596019	     75.00017594	     45.00000026	      0.00000000	      0.00000000	     44.99596019	    -15.00009364	     44.99596019	     75.00017594	     45.00000026	      0.00000000	      0.00000000
